<?xml version="1.0" encoding="utf-8"?>
<!-- Generator: Adobe Illustrator 19.1.0, SVG Export Plug-In . SVG Version: 6.00 Build 0)  -->
<svg version="1.1" id="Laag_1" xmlns="http://www.w3.org/2000/svg" xmlns:xlink="http://www.w3.org/1999/xlink" x="0px" y="0px"
	 width="8.2989998px" height="14.9980001px" viewBox="-475 273.0020142 8.2989998 14.9980001"
	 style="enable-background:new -475 273.0020142 8.2989998 14.9980001;" xml:space="preserve">
<g>
	<path d="M-467.5009766,287.1997681l-6.6990051-6.6990051 M-467.5009766,273.8017578l-6.6990051,6.6990051"/>
	<path d="M-467.5009766,287.9998169c-0.2050781,0-0.4091797-0.078125-0.5654297-0.234375l-6.699707-6.6992188
		C-474.921875,280.9104614-475,280.7053833-475,280.5007935s0.078125-0.409668,0.2338867-0.565918l6.699707-6.6992188
		c0.3125-0.3115234,0.8183594-0.3115234,1.1308594,0c0.3125,0.3125,0.3125,0.8193359,0,1.1318359l-6.1333008,6.1333008
		l6.1333008,6.1337891c0.3125,0.3125,0.3125,0.8183594,0,1.1308594
		C-467.0917969,287.9216919-467.2958984,287.9998169-467.5009766,287.9998169z"/>
</g>
</svg>
