<?xml version="1.0" encoding="utf-8"?>
<!-- Generator: Adobe Illustrator 19.1.0, SVG Export Plug-In . SVG Version: 6.00 Build 0)  -->
<svg version="1.1" id="Laag_1" xmlns="http://www.w3.org/2000/svg" xmlns:xlink="http://www.w3.org/1999/xlink" x="0px" y="0px"
	 width="8.2989998px" height="14.9980001px" viewBox="-475 273.0020142 8.2989998 14.9980001"
	 style="enable-background:new -475 273.0020142 8.2989998 14.9980001;" xml:space="preserve">
<g>
	<path d="M-474.1990051,273.803009L-467.5,280.5020142 M-474.1990051,287.2010193L-467.5,280.5020142"/>
	<path d="M-474.1992188,288.0010376c-0.2045898,0-0.409668-0.078125-0.565918-0.234375
		c-0.3120117-0.3125-0.3120117-0.8183594,0-1.1308594l6.1333008-6.1337891l-6.1333008-6.1333008
		c-0.3120117-0.3125-0.3120117-0.8193359,0-1.1318359c0.3125-0.3115234,0.8193359-0.3115234,1.1318359,0l6.6987305,6.6992188
		c0.15625,0.15625,0.234375,0.3613281,0.234375,0.565918s-0.078125,0.409668-0.234375,0.5654297l-6.6987305,6.6992188
		C-473.7895508,287.9229126-473.9946289,288.0010376-474.1992188,288.0010376z"/>
</g>
</svg>
